<?xml version="1.0" standalone="no"?>
<!DOCTYPE svg PUBLIC "-//W3C//DTD SVG 20010904//EN"
 "http://www.w3.org/TR/2001/REC-SVG-20010904/DTD/svg10.dtd">
<svg version="1.0" xmlns="http://www.w3.org/2000/svg"
 width="513.000000pt" height="513.000000pt" viewBox="0 0 513.000000 513.000000"
 preserveAspectRatio="xMidYMid meet">
<metadata>
Created by potrace 1.11, written by Peter Selinger 2001-2013
</metadata>
<g transform="translate(0.000000,513.000000) scale(0.100000,-0.100000)"
fill="#000000" stroke="none">
<path d="M2378 5125 c-1 -1 -38 -5 -80 -9 -43 -4 -83 -8 -90 -11 -7 -2 -31 -6
-53 -9 -163 -23 -361 -77 -540 -149 -214 -85 -479 -240 -659 -385 -97 -77
-299 -279 -380 -379 -229 -281 -431 -685 -502 -1004 -2 -10 -6 -29 -10 -41 -3
-13 -7 -34 -10 -48 -2 -14 -7 -38 -11 -55 -3 -16 -7 -39 -9 -50 -1 -11 -5 -36
-8 -55 -17 -100 -23 -225 -21 -410 2 -113 6 -216 8 -230 3 -14 8 -47 11 -75
14 -119 58 -310 106 -455 87 -267 219 -514 404 -760 87 -115 299 -332 421
-431 338 -273 802 -480 1195 -534 25 -3 52 -8 60 -10 100 -26 571 -26 705 -1
11 2 40 7 65 10 64 9 83 13 195 41 55 14 110 28 121 30 31 7 199 68 269 98
219 93 454 236 650 397 16 14 93 88 170 165 181 181 324 371 435 580 24 44 46
85 50 90 15 21 102 238 129 322 52 156 93 341 117 523 3 25 7 137 8 250 3 198
-6 333 -35 490 -6 36 -13 72 -14 80 -16 89 -80 296 -131 422 -88 218 -230 462
-381 652 -90 114 -329 344 -453 437 -103 76 -263 180 -345 222 -189 98 -459
199 -620 231 -16 4 -41 9 -55 11 -77 16 -120 24 -165 29 -27 4 -66 9 -85 12
-37 6 -456 14 -462 9z"/>
</g>
</svg>
